<?xml version="1.0" encoding="UTF-8" standalone="no"?>
<!-- Created with Inkscape (http://www.inkscape.org/) -->

<svg
   xmlns:dc="http://purl.org/dc/elements/1.1/"
   xmlns:cc="http://creativecommons.org/ns#"
   xmlns:rdf="http://www.w3.org/1999/02/22-rdf-syntax-ns#"
   xmlns:svg="http://www.w3.org/2000/svg"
   xmlns="http://www.w3.org/2000/svg"
   xmlns:sodipodi="http://sodipodi.sourceforge.net/DTD/sodipodi-0.dtd"
   xmlns:inkscape="http://www.inkscape.org/namespaces/inkscape"
   id="svg4155"
   version="1.1"
   inkscape:version="0.91 r13725"
   xml:space="preserve"
   width="744.09998"
   height="1052.3625"
   viewBox="0 0 744.09998 1052.3625"
   sodipodi:docname="ripples.svg"><metadata
     id="metadata4161"><rdf:RDF><cc:Work
         rdf:about=""><dc:format>image/svg+xml</dc:format><dc:type
           rdf:resource="http://purl.org/dc/dcmitype/StillImage" /><dc:title /></cc:Work></rdf:RDF></metadata><defs
     id="defs4159"><clipPath
       clipPathUnits="userSpaceOnUse"
       id="clipPath4169"><path
         d="m 239.887,395.568 115.154,0 0,163.872 -115.154,0 0,-163.872 z"
         id="path4171"
         inkscape:connector-curvature="0" /></clipPath><clipPath
       clipPathUnits="userSpaceOnUse"
       id="clipPath4207"><path
         d="m 0,841.89 595.28,0 L 595.28,0 0,0 0,841.89 Z"
         id="path4209"
         inkscape:connector-curvature="0" /></clipPath><clipPath
       clipPathUnits="userSpaceOnUse"
       id="clipPath4773"><path
         d="m 0,841.89 595.28,0 L 595.28,0 0,0 0,841.89 Z"
         id="path4775"
         inkscape:connector-curvature="0" /></clipPath></defs><sodipodi:namedview
     pagecolor="#ffffff"
     bordercolor="#666666"
     borderopacity="1"
     objecttolerance="10"
     gridtolerance="10"
     guidetolerance="10"
     inkscape:pageopacity="0"
     inkscape:pageshadow="2"
     inkscape:window-width="1277"
     inkscape:window-height="1031"
     id="namedview4157"
     showgrid="false"
     inkscape:zoom="1.84"
     inkscape:cx="442.01088"
     inkscape:cy="550.81266"
     inkscape:window-x="542"
     inkscape:window-y="54"
     inkscape:window-maximized="0"
     inkscape:current-layer="g4163" /><g
     id="g4163"
     inkscape:groupmode="layer"
     inkscape:label="ripples"
     transform="matrix(1.25,0,0,-1.25,0,1052.3625)"><g
       id="g5577"><path
         inkscape:connector-curvature="0"
         id="path4767"
         style="fill:none;stroke:#0000ff;stroke-width:0.02834646;stroke-linecap:round;stroke-linejoin:round;stroke-miterlimit:7;stroke-dasharray:none;stroke-opacity:1"
         d="m 354.635,251.35 -114.241,0 0,364.262 114.241,0 0,-364.262 z" /><g
         transform="translate(257.1196,259.8545)"
         id="g4777"
         style="fill:none;stroke:#0000ff;stroke-width:0.02834646;stroke-miterlimit:7;stroke-dasharray:none;stroke-opacity:1"><path
           inkscape:connector-curvature="0"
           id="path4779"
           style="fill:none;stroke:#0000ff;stroke-width:0.02834646;stroke-linecap:round;stroke-linejoin:round;stroke-miterlimit:7;stroke-dasharray:none;stroke-opacity:1"
           d="m 0,0 c 0,-2.505 2.03,-4.536 4.535,-4.536 2.506,0 4.536,2.031 4.536,4.536 0,2.505 -2.03,4.535 -4.536,4.535 C 2.03,4.535 0,2.505 0,0" /></g><g
         transform="translate(257.1196,607.1079)"
         id="g4781"
         style="fill:none;stroke:#0000ff;stroke-width:0.02834646;stroke-miterlimit:7;stroke-dasharray:none;stroke-opacity:1"><path
           inkscape:connector-curvature="0"
           id="path4783"
           style="fill:none;stroke:#0000ff;stroke-width:0.02834646;stroke-linecap:round;stroke-linejoin:round;stroke-miterlimit:7;stroke-dasharray:none;stroke-opacity:1"
           d="m 0,0 c 0,-2.506 2.03,-4.536 4.535,-4.536 2.506,0 4.536,2.03 4.536,4.536 0,2.505 -2.03,4.536 -4.536,4.536 C 2.03,4.536 0,2.505 0,0" /></g><g
         transform="translate(322.6631,300.6738)"
         id="g4785"
         style="fill:none;stroke:#0000ff;stroke-width:0.02834646;stroke-miterlimit:7;stroke-dasharray:none;stroke-opacity:1"><path
           inkscape:connector-curvature="0"
           id="path4787"
           style="fill:none;stroke:#0000ff;stroke-width:0.02834646;stroke-linecap:round;stroke-linejoin:round;stroke-miterlimit:7;stroke-dasharray:none;stroke-opacity:1"
           d="m 0,0 c 0,-5.009 4.062,-9.07 9.071,-9.07 5.01,0 9.072,4.061 9.072,9.07 0,5.01 -4.062,9.071 -9.072,9.071 C 4.062,9.071 0,5.01 0,0" /></g><g
         transform="translate(254.2334,300.6738)"
         id="g4789"
         style="fill:none;stroke:#0000ff;stroke-width:0.02834646;stroke-miterlimit:7;stroke-dasharray:none;stroke-opacity:1"><path
           inkscape:connector-curvature="0"
           id="path4791"
           style="fill:none;stroke:#0000ff;stroke-width:0.02834646;stroke-linecap:round;stroke-linejoin:round;stroke-miterlimit:7;stroke-dasharray:none;stroke-opacity:1"
           d="m 0,0 c 0,-5.01 4.061,-9.07 9.071,-9.07 5.009,0 9.071,4.06 9.071,9.07 0,5.011 -4.062,9.071 -9.071,9.071 C 4.061,9.071 0,5.011 0,0" /></g><g
         transform="translate(288.4487,300.6738)"
         id="g4793"
         style="fill:none;stroke:#0000ff;stroke-width:0.02834646;stroke-miterlimit:7;stroke-dasharray:none;stroke-opacity:1"><path
           inkscape:connector-curvature="0"
           id="path4795"
           style="fill:none;stroke:#0000ff;stroke-width:0.02834646;stroke-linecap:round;stroke-linejoin:round;stroke-miterlimit:7;stroke-dasharray:none;stroke-opacity:1"
           d="m 0,0 c 0,-5.009 4.061,-9.07 9.07,-9.07 5.011,0 9.072,4.061 9.072,9.07 0,5.01 -4.061,9.071 -9.072,9.071 C 4.061,9.071 0,5.01 0,0" /></g><g
         transform="translate(322.6631,334.8896)"
         id="g4797"
         style="fill:none;stroke:#0000ff;stroke-width:0.02834646;stroke-miterlimit:7;stroke-dasharray:none;stroke-opacity:1"><path
           inkscape:connector-curvature="0"
           id="path4799"
           style="fill:none;stroke:#0000ff;stroke-width:0.02834646;stroke-linecap:round;stroke-linejoin:round;stroke-miterlimit:7;stroke-dasharray:none;stroke-opacity:1"
           d="m 0,0 c 0,-5.01 4.062,-9.071 9.071,-9.071 5.01,0 9.072,4.061 9.072,9.071 0,5.009 -4.062,9.071 -9.072,9.071 C 4.062,9.071 0,5.009 0,0" /></g><g
         transform="translate(254.2334,334.8896)"
         id="g4801"
         style="fill:none;stroke:#0000ff;stroke-width:0.02834646;stroke-miterlimit:7;stroke-dasharray:none;stroke-opacity:1"><path
           inkscape:connector-curvature="0"
           id="path4803"
           style="fill:none;stroke:#0000ff;stroke-width:0.02834646;stroke-linecap:round;stroke-linejoin:round;stroke-miterlimit:7;stroke-dasharray:none;stroke-opacity:1"
           d="m 0,0 c 0,-5.011 4.061,-9.071 9.071,-9.071 5.009,0 9.071,4.06 9.071,9.071 0,5.01 -4.062,9.071 -9.071,9.071 C 4.061,9.071 0,5.01 0,0" /></g><g
         transform="translate(288.4487,334.8896)"
         id="g4805"
         style="fill:none;stroke:#0000ff;stroke-width:0.02834646;stroke-miterlimit:7;stroke-dasharray:none;stroke-opacity:1"><path
           inkscape:connector-curvature="0"
           id="path4807"
           style="fill:none;stroke:#0000ff;stroke-width:0.02834646;stroke-linecap:round;stroke-linejoin:round;stroke-miterlimit:7;stroke-dasharray:none;stroke-opacity:1"
           d="m 0,0 c 0,-5.01 4.061,-9.071 9.07,-9.071 5.011,0 9.072,4.061 9.072,9.071 0,5.009 -4.061,9.071 -9.072,9.071 C 4.061,9.071 0,5.009 0,0" /></g><g
         transform="translate(322.6631,369.1035)"
         id="g4809"
         style="fill:none;stroke:#0000ff;stroke-width:0.02834646;stroke-miterlimit:7;stroke-dasharray:none;stroke-opacity:1"><path
           inkscape:connector-curvature="0"
           id="path4811"
           style="fill:none;stroke:#0000ff;stroke-width:0.02834646;stroke-linecap:round;stroke-linejoin:round;stroke-miterlimit:7;stroke-dasharray:none;stroke-opacity:1"
           d="m 0,0 c 0,-5.009 4.062,-9.07 9.071,-9.07 5.01,0 9.072,4.061 9.072,9.07 0,5.01 -4.062,9.071 -9.072,9.071 C 4.062,9.071 0,5.01 0,0" /></g><g
         transform="translate(254.2334,369.1035)"
         id="g4813"
         style="fill:none;stroke:#0000ff;stroke-width:0.02834646;stroke-miterlimit:7;stroke-dasharray:none;stroke-opacity:1"><path
           inkscape:connector-curvature="0"
           id="path4815"
           style="fill:none;stroke:#0000ff;stroke-width:0.02834646;stroke-linecap:round;stroke-linejoin:round;stroke-miterlimit:7;stroke-dasharray:none;stroke-opacity:1"
           d="m 0,0 c 0,-5.01 4.061,-9.07 9.071,-9.07 5.009,0 9.071,4.06 9.071,9.07 0,5.011 -4.062,9.071 -9.071,9.071 C 4.061,9.071 0,5.011 0,0" /></g><g
         transform="translate(288.4487,369.1035)"
         id="g4817"
         style="fill:none;stroke:#0000ff;stroke-width:0.02834646;stroke-miterlimit:7;stroke-dasharray:none;stroke-opacity:1"><path
           inkscape:connector-curvature="0"
           id="path4819"
           style="fill:none;stroke:#0000ff;stroke-width:0.02834646;stroke-linecap:round;stroke-linejoin:round;stroke-miterlimit:7;stroke-dasharray:none;stroke-opacity:1"
           d="m 0,0 c 0,-5.009 4.061,-9.07 9.07,-9.07 5.011,0 9.072,4.061 9.072,9.07 0,5.01 -4.061,9.071 -9.072,9.071 C 4.061,9.071 0,5.01 0,0" /></g><g
         transform="translate(254.7856,556.2813)"
         id="g4821"
         style="fill:none;stroke:#0000ff;stroke-width:0.02834646;stroke-miterlimit:7;stroke-dasharray:none;stroke-opacity:1"><path
           inkscape:connector-curvature="0"
           id="path4823"
           style="fill:none;stroke:#0000ff;stroke-width:0.02834646;stroke-linecap:round;stroke-linejoin:round;stroke-miterlimit:7;stroke-dasharray:none;stroke-opacity:1"
           d="m 0,0 c 0,-5.715 4.633,-10.346 10.346,-10.346 5.716,0 10.347,4.631 10.347,10.346 0,5.714 -4.631,10.346 -10.347,10.346 C 4.633,10.346 0,5.714 0,0" /></g><g
         transform="translate(287.2012,495.0791)"
         id="g4825"
         style="fill:none;stroke:#0000ff;stroke-width:0.02834646;stroke-miterlimit:7;stroke-dasharray:none;stroke-opacity:1"><path
           inkscape:connector-curvature="0"
           id="path4827"
           style="fill:none;stroke:#0000ff;stroke-width:0.02834646;stroke-linecap:round;stroke-linejoin:round;stroke-miterlimit:7;stroke-dasharray:none;stroke-opacity:1"
           d="m 0,0 c 0,-5.715 4.632,-10.347 10.347,-10.347 5.715,0 10.346,4.632 10.346,10.347 0,5.716 -4.631,10.347 -10.346,10.347 C 4.632,10.347 0,5.716 0,0" /></g><g
         transform="translate(319.5869,433.8774)"
         id="g4829"
         style="fill:none;stroke:#0000ff;stroke-width:0.02834646;stroke-miterlimit:7;stroke-dasharray:none;stroke-opacity:1"><path
           inkscape:connector-curvature="0"
           id="path4831"
           style="fill:none;stroke:#0000ff;stroke-width:0.02834646;stroke-linecap:round;stroke-linejoin:round;stroke-miterlimit:7;stroke-dasharray:none;stroke-opacity:1"
           d="m 0,0 c 0,-5.714 4.634,-10.346 10.347,-10.346 5.715,0 10.346,4.632 10.346,10.346 0,5.714 -4.631,10.347 -10.346,10.347 C 4.634,10.347 0,5.714 0,0" /></g><g
         id="text5434"
         style="font-style:normal;font-variant:normal;font-weight:normal;font-stretch:normal;font-size:32px;line-height:125%;font-family:Verdana;-inkscape-font-specification:Verdana;letter-spacing:0px;word-spacing:0px;fill:#000000;fill-opacity:1;stroke:none;stroke-width:1px;stroke-linecap:butt;stroke-linejoin:miter;stroke-opacity:1"
         transform="scale(1,-1)"><path
           id="path5553"
           style="font-size:16px"
           d="m 282.26978,-603.7608 q 0,4.6875 -4.375,6.75 l -1.25,-1.0625 q 4.125,-1.875 4.1875,-5.75 l 0,-6.25 1.3125,0 q 0.625,0.125 0.125,0.5 l 0,5.8125 z m -6.4375,1.375 -1.4375,0 0,-7.0625 1.375,0 q 0.625,0.0625 0.0625,0.5 l 0,6.5625 z" /><path
           id="path5555"
           style="font-size:16px"
           d="m 299.51978,-605.8858 q -0.4375,4.0625 -2.25,5.875 -1.8125,1.8125 -4.75,2.875 l -0.8125,-1.1875 q 2.875,-0.9375 4.5,-2.5625 1.75,-1.75 2,-5.9375 l 1.3125,0.4375 q 0.5625,0.1875 0,0.5 z m -5.3125,2.25 q -0.75,-1.6875 -1.5,-2.8125 l 1.1875,-0.625 q 0.9375,1.1875 1.625,2.8125 l -1.3125,0.625 z m -3.1875,0.9375 q -0.75,-1.75 -1.5625,-2.9375 l 1.25,-0.625 q 0.875,1.1875 1.5625,2.875 l -1.25,0.6875 z" /><path
           id="path5557"
           style="font-size:16px"
           d="m 316.26978,-609.0108 q 0.5,0 0.8125,-0.3125 0.3125,-0.3125 0.3125,-0.8125 0,-0.5 -0.3125,-0.8125 -0.3125,-0.3125 -0.8125,-0.3125 -0.5,0 -0.8125,0.3125 -0.3125,0.3125 -0.3125,0.8125 0,0.5 0.3125,0.8125 0.3125,0.3125 0.8125,0.3125 z m 0,0.625 q -0.75,0 -1.25,-0.5 -0.5,-0.5 -0.5,-1.25 0,-0.75 0.5,-1.25 0.5,-0.5 1.25,-0.5 0.75,0 1.25,0.5 0.5,0.5 0.5,1.25 0,0.75 -0.5,1.25 -0.5,0.5 -1.25,0.5 z m -11.1875,0.8125 0,-1.375 9.25,0 1.625,1.1875 q -0.3125,7.5625 -8.5625,9.875 l -1.125,-1.375 q 7.8125,-1.8125 8.1875,-8.3125 l -9.375,0 z" /><path
           id="path5559"
           style="font-size:16px"
           d="m 327.76978,-600.0733 q 2.75,-1.0625 5.0625,-4.25 l 0.875,1.1875 q -2.375,3.25 -6,4.6875 l -0.5,0.25 -1,-0.75 0.125,-0.3125 0,-10.0625 1.3125,0 q 0.5625,0.125 0.125,0.5 l 0,8.75 z m -8.375,1.6875 q 3.125,-3 3.125,-7.4375 l 0,-2.8125 1.3125,0 q 0.5625,0.125 0.125,0.5 l 0,2.25 q 0,5.25 -3.3125,8.3125 l -1.25,-0.8125 z" /><path
           id="path5561"
           style="font-size:16px"
           d="m 345.89478,-607.7608 q -1.1875,2.0625 -2.5,3.8125 2.6875,2.0625 5.3125,4.75 l -1.25,1.0625 q -2.625,-2.75 -5.0625,-4.625 -2.4375,2.625 -5.5625,4.6875 l -1.1875,-1.0625 q 6.625,-4.3125 8.5,-8.625 l -6.8125,0.4375 -0.1875,-1.5 7.25,-0.3125 0.75,-0.1875 1,1 q 0.4375,0.4375 -0.25,0.5625 z m 3.3125,-1.1875 q -1.125,-1.3125 -2.125,-2.125 l 0.8125,-0.75 q 1.125,0.875 2.125,2.0625 l -0.8125,0.8125 z m -1.75,1 q -0.8125,-0.9375 -2.1875,-2.1875 l 0.9375,-0.75 q 1.125,1 2.1875,2.125 l -0.9375,0.8125 z" /></g><g
         id="text5438"
         style="font-style:normal;font-variant:normal;font-weight:normal;font-stretch:normal;font-size:9px;line-height:125%;font-family:Verdana;-inkscape-font-specification:Verdana;letter-spacing:0px;word-spacing:0px;fill:#000000;fill-opacity:1;stroke:none;stroke-width:1px;stroke-linecap:butt;stroke-linejoin:miter;stroke-opacity:1"
         transform="scale(1,-1)"><path
           id="path5479"
           style="font-size:9px"
           d="m 283.00342,-261.96338 q 1.75781,2.21484 2.49609,4.67578 l -0.94922,0.31641 q -0.8789,-2.77735 -2.28515,-4.42969 l 0.73828,-0.5625 z m -2.67188,0.80859 q 0.28125,0.17579 -0.0703,0.31641 -0.63281,2.21484 -2.03906,4.04297 l -0.8086,-0.52734 q 1.54688,-1.86329 2.07422,-4.21875 l 0.84375,0.38671 z m 4.21875,-2.74218 q 0.45703,0.38672 1.125,1.08984 l -0.45703,0.42188 q -0.63281,-0.70313 -1.125,-1.125 l 0.45703,-0.38672 z m -0.84375,0.52734 q 0.52735,0.49219 1.125,1.19531 l -0.52734,0.38672 q -0.52734,-0.70312 -1.08984,-1.19531 l 0.49218,-0.38672 z" /><path
           id="path5481"
           style="font-size:9px"
           d="m 286.51904,-259.36182 0,-0.77343 7.83985,0 0,0.77343 -7.83985,0 z" /><path
           id="path5483"
           style="font-size:9px"
           d="m 301.46045,-260.90869 -2.00391,0.0703 q -0.21093,2.98828 -2.77734,4.71094 l -0.59766,-0.59766 q 2.42578,-1.61719 2.56641,-4.11328 l -2.49609,0.0703 -0.0703,-0.70312 2.60157,-0.0703 0,-1.96875 0.73828,0 q 0.38672,0.0703 0.0703,0.28125 l 0,1.6875 2.77734,-0.10547 0,2.17968 q 0,1.72266 -0.3164,2.42579 -0.31641,0.70312 -1.33594,0.70312 l -0.84375,0 -0.10547,-0.87891 q 0.52734,0.0703 0.91406,0.0703 0.52735,0 0.66797,-0.35157 0.21094,-0.5625 0.21094,-1.96875 l 0,-1.4414 z" /><path
           id="path5485"
           style="font-size:9px"
           d="m 308.17529,-260.69775 q 1.72266,0.49218 3.48047,1.33593 l -0.42187,0.8086 q -1.86328,-0.94922 -3.0586,-1.26563 l 0,3.65625 -0.80859,0 0,-7.03125 0.70312,0 q 0.42188,0.0352 0.10547,0.28125 l 0,2.21485 z" /><path
           id="path5487"
           style="font-size:9px"
           d="m 320.26904,-257.07666 -0.80859,0 0,-0.38672 -3.90234,0 0,0.5625 -0.8086,0 0,-5.48437 5.51953,0 0,5.30859 z m -4.71093,-4.53516 0,3.375 3.90234,0 0,-3.375 -3.90234,0 z" /><path
           id="path5489"
           style="font-size:9px"
           d="m 322.90576,-258.23682 7.27735,0 0,0.77344 -7.27735,0 0,-0.77344 z m 0.87891,-3.83203 5.16797,0 0,0.77344 -5.16797,0 0,-0.77344 z" /><path
           id="path5491"
           style="font-size:9px"
           d="m 338.02295,-261.29541 q -0.66797,3.83203 -4.39453,5.48437 l -0.63281,-0.66796 q 3.44531,-1.40625 4.14843,-4.85157 l -2.8125,0 q -0.80859,1.33594 -1.6875,2.14453 l -0.70312,-0.45703 q 1.82812,-1.65234 2.35547,-3.86718 l 0.80859,0.28125 q 0.21094,0.10546 -0.0703,0.21093 -0.14063,0.45703 -0.38672,0.91407 l 2.53125,0 0.31641,-0.17579 0.63281,0.63282 q 0.24609,0.24609 -0.10547,0.35156 z" /><path
           id="path5493"
           style="font-size:9px"
           d="m 345.01904,-259.67822 q 1.51172,1.16015 2.98828,2.67187 l -0.70312,0.59766 q -1.47656,-1.54688 -2.84766,-2.60156 -1.37109,1.47656 -3.1289,2.63671 l -0.66797,-0.59765 q 3.72656,-2.42578 4.78125,-4.85156 l -3.83203,0.24609 -0.10547,-0.84375 4.07812,-0.17578 0.42188,-0.10547 0.5625,0.5625 q 0.24609,0.24609 -0.14063,0.31641 -0.66797,1.16015 -1.40625,2.14453 z" /></g><g
         id="text5442"
         style="font-style:normal;font-variant:normal;font-weight:bold;font-stretch:normal;font-size:8px;line-height:125%;font-family:Verdana;-inkscape-font-specification:'Verdana Bold';letter-spacing:0px;word-spacing:0px;fill:#000000;fill-opacity:1;stroke:none;stroke-width:1px;stroke-linecap:butt;stroke-linejoin:miter;stroke-opacity:1"
         transform="scale(1,-1)"><path
           id="path5546"
           style=""
           d="m 258.37862,-387.51337 q 0,-0.21875 -0.0899,-0.375 -0.0898,-0.15625 -0.30859,-0.24609 -0.15234,-0.0625 -0.35547,-0.0742 -0.20312,-0.0156 -0.47266,-0.0156 l -0.54296,0 0,1.5664 0.46093,0 q 0.35938,0 0.60157,-0.0352 0.24218,-0.0352 0.40625,-0.16016 0.15625,-0.12109 0.22656,-0.26563 0.0742,-0.14843 0.0742,-0.39453 z m 2.33984,4.03516 -1.83203,0 -1.58594,-2.13281 -0.6914,0 0,2.13281 -1.49219,0 0,-5.81641 2.51562,0 q 0.51563,0 0.88672,0.0586 0.3711,0.0586 0.69531,0.2539 0.32813,0.19532 0.51954,0.50782 0.19531,0.30859 0.19531,0.77734 0,0.64453 -0.30078,1.05078 -0.29688,0.40625 -0.85157,0.67578 l 1.94141,2.49219 z" /><path
           id="path5548"
           style=""
           d="m 265.57393,-383.47821 -4.20703,0 0,-5.81641 4.20703,0 0,1.125 -2.71484,0 0,1.00391 2.51953,0 0,1.125 -2.51953,0 0,1.4375 2.71484,0 0,1.125 z" /><path
           id="path5550"
           style=""
           d="m 271.4919,-385.30634 q 0,0.85938 -0.73047,1.39844 -0.72656,0.53516 -1.97656,0.53516 -0.72266,0 -1.26172,-0.125 -0.53516,-0.12891 -1.00391,-0.32422 l 0,-1.39453 0.16406,0 q 0.46485,0.37109 1.03907,0.57031 0.57812,0.19922 1.10937,0.19922 0.13672,0 0.35938,-0.0234 0.22265,-0.0234 0.36328,-0.0781 0.17187,-0.0703 0.28125,-0.17578 0.11328,-0.10547 0.11328,-0.3125 0,-0.19141 -0.16406,-0.32813 -0.16016,-0.14062 -0.47266,-0.21484 -0.32812,-0.0781 -0.69531,-0.14453 -0.36328,-0.0703 -0.6836,-0.17579 -0.73437,-0.23828 -1.05859,-0.64453 -0.32031,-0.41015 -0.32031,-1.01562 0,-0.8125 0.72656,-1.32422 0.73047,-0.51563 1.875,-0.51563 0.57422,0 1.13281,0.11329 0.5625,0.10937 0.97266,0.27734 l 0,1.33984 -0.16016,0 q -0.35156,-0.28125 -0.86328,-0.46875 -0.50781,-0.1914 -1.03906,-0.1914 -0.1875,0 -0.375,0.0273 -0.18359,0.0234 -0.35547,0.0937 -0.15234,0.0586 -0.26172,0.17969 -0.10937,0.11719 -0.10937,0.26953 0,0.23047 0.17578,0.35547 0.17578,0.12109 0.66406,0.22265 0.32031,0.0664 0.61328,0.12891 0.29688,0.0625 0.63672,0.17188 0.66797,0.21875 0.98438,0.59765 0.32031,0.375 0.32031,0.97656 z" /></g><g
         id="text5446"
         style="font-style:normal;font-variant:normal;font-weight:bold;font-stretch:normal;font-size:8px;line-height:125%;font-family:Verdana;-inkscape-font-specification:'Verdana Bold';letter-spacing:0px;word-spacing:0px;fill:#000000;fill-opacity:1;stroke:none;stroke-width:1px;stroke-linecap:butt;stroke-linejoin:miter;stroke-opacity:1"
         transform="scale(1,-1)"><path
           id="path5537"
           style=""
           d="m 290.39862,-388.93915 -2.67578,0 0,1.08203 2.48047,0 0,1.125 -2.48047,0 0,2.48438 -1.49219,0 0,-5.81641 4.16797,0 0,1.125 z" /><path
           id="path5539"
           style=""
           d="m 294.6955,-388.2829 q 0,-0.21875 -0.0898,-0.375 -0.0898,-0.15625 -0.30859,-0.24609 -0.15235,-0.0625 -0.35547,-0.0742 -0.20313,-0.0156 -0.47266,-0.0156 l -0.54297,0 0,1.56641 0.46094,0 q 0.35938,0 0.60156,-0.0352 0.24219,-0.0352 0.40625,-0.16015 0.15625,-0.1211 0.22657,-0.26563 0.0742,-0.14843 0.0742,-0.39453 z m 2.33984,4.03516 -1.83203,0 -1.58594,-2.13281 -0.69141,0 0,2.13281 -1.49218,0 0,-5.81641 2.51562,0 q 0.51563,0 0.88672,0.0586 0.37109,0.0586 0.69531,0.2539 0.32813,0.19531 0.51953,0.50781 0.19532,0.3086 0.19532,0.77735 0,0.64453 -0.30078,1.05078 -0.29688,0.40625 -0.85157,0.67578 l 1.94141,2.49219 z" /><path
           id="path5541"
           style=""
           d="m 301.89081,-384.24774 -4.20703,0 0,-5.81641 4.20703,0 0,1.125 -2.71485,0 0,1.00391 2.51954,0 0,1.125 -2.51954,0 0,1.4375 2.71485,0 0,1.125 z" /><path
           id="path5543"
           style=""
           d="m 306.8205,-385.68134 q 0.21875,-0.26562 0.32421,-0.625 0.10547,-0.36328 0.10547,-0.85156 0,-0.52344 -0.12109,-0.89062 -0.12109,-0.36719 -0.31641,-0.59375 -0.19922,-0.23438 -0.46093,-0.33985 -0.25782,-0.10547 -0.53907,-0.10547 -0.28515,0 -0.53906,0.10157 -0.25,0.10156 -0.46094,0.33593 -0.19531,0.21875 -0.32031,0.60547 -0.12109,0.38282 -0.12109,0.89063 0,0.51953 0.11718,0.88672 0.1211,0.36328 0.31641,0.59375 0.19531,0.23047 0.45703,0.33984 0.26172,0.10938 0.55078,0.10938 0.28907,0 0.55078,-0.10938 0.26172,-0.11328 0.45704,-0.34766 z m 0.16015,1.36329 q 0.0156,0.38671 0.21094,0.55468 0.19531,0.16797 0.66797,0.16797 0.16015,0 0.3789,-0.0547 0.21875,-0.0547 0.30469,-0.0977 l 0.14844,0 0,1.03125 q -0.21875,0.0508 -0.47656,0.0898 -0.25391,0.0391 -0.78125,0.0391 -0.46485,0 -0.8125,-0.11718 -0.34375,-0.11328 -0.57422,-0.32422 -0.22656,-0.20703 -0.33985,-0.48828 -0.11328,-0.28125 -0.13281,-0.625 -1.30469,-0.0742 -2.03515,-0.8711 -0.72657,-0.80078 -0.72657,-2.14062 0,-1.40235 0.79688,-2.21485 0.79687,-0.8164 2.19922,-0.8164 1.39843,0 2.19922,0.8164 0.80078,0.8125 0.80078,2.21485 0,1.03515 -0.46875,1.78906 -0.46875,0.75 -1.35938,1.04688 z" /></g><g
         id="text5450"
         style="font-style:normal;font-variant:normal;font-weight:bold;font-stretch:normal;font-size:8px;line-height:125%;font-family:Verdana;-inkscape-font-specification:'Verdana Bold';letter-spacing:0px;word-spacing:0px;fill:#000000;fill-opacity:1;stroke:none;stroke-width:1px;stroke-linecap:butt;stroke-linejoin:miter;stroke-opacity:1"
         transform="scale(1,-1)"><path
           id="path5532"
           style=""
           d="m 330.25217,-388.16962 -2.67578,0 0,1.08203 2.48046,0 0,1.125 -2.48046,0 0,2.48438 -1.49219,0 0,-5.81641 4.16797,0 0,1.125 z" /><path
           id="path5534"
           style=""
           d="m 337.38498,-383.47821 -1.49219,0 0,-3.89453 -1.07812,2.52734 -1.03516,0 -1.07812,-2.52734 0,3.89453 -1.41407,0 0,-5.81641 1.74219,0 1.30859,2.91797 1.30469,-2.91797 1.74219,0 0,5.81641 z" /></g><g
         id="text5454"
         style="font-style:normal;font-variant:normal;font-weight:bold;font-stretch:normal;font-size:8px;line-height:125%;font-family:Verdana;-inkscape-font-specification:'Verdana Bold';letter-spacing:0px;word-spacing:0px;fill:#000000;fill-opacity:1;stroke:none;stroke-width:1px;stroke-linecap:butt;stroke-linejoin:miter;stroke-opacity:1"
         transform="scale(1,-1)"><path
           id="path5527"
           style=""
           d="m 261.74777,-349.1304 -3.40625,0 0,-1.03125 0.95313,0 0,-3.75391 -0.95313,0 0,-1.03125 3.40625,0 0,1.03125 -0.95312,0 0,3.75391 0.95312,0 0,1.03125 z" /><path
           id="path5529"
           style=""
           d="m 268.2673,-349.1304 -1.44531,0 -2.46875,-3.99219 0,3.99219 -1.375,0 0,-5.81641 1.79297,0 2.12109,3.33203 0,-3.33203 1.375,0 0,5.81641 z" /></g><g
         id="text5458"
         style="font-style:normal;font-variant:normal;font-weight:bold;font-stretch:normal;font-size:8px;line-height:125%;font-family:Verdana;-inkscape-font-specification:'Verdana Bold';letter-spacing:0px;word-spacing:0px;fill:#000000;fill-opacity:1;stroke:none;stroke-width:1px;stroke-linecap:butt;stroke-linejoin:miter;stroke-opacity:1"
         transform="scale(1,-1)"><path
           id="path5564"
           style=""
           d="m 294.24628,-350.85501 q 0,0.42187 -0.17188,0.75391 -0.16797,0.33203 -0.46484,0.55078 -0.34375,0.25781 -0.75781,0.36718 -0.41016,0.10938 -1.04297,0.10938 l -2.53907,0 0,-5.81641 2.25782,0 q 0.70312,0 1.02734,0.0469 0.32813,0.0469 0.64844,0.20703 0.33203,0.16797 0.49219,0.45312 0.16406,0.28125 0.16406,0.64454 0,0.42187 -0.22266,0.74609 -0.22265,0.32031 -0.6289,0.5 l 0,0.0312 q 0.57031,0.11328 0.90234,0.46875 0.33594,0.35547 0.33594,0.9375 z m -1.92188,-2.39063 q 0,-0.14453 -0.0742,-0.28906 -0.0703,-0.14453 -0.2539,-0.21484 -0.16407,-0.0625 -0.41016,-0.0664 -0.24219,-0.008 -0.68359,-0.008 l -0.14063,0 0,1.23047 0.23438,0 q 0.35547,0 0.60547,-0.0117 0.25,-0.0117 0.39453,-0.0781 0.20312,-0.0898 0.26562,-0.23046 0.0625,-0.14454 0.0625,-0.33204 z m 0.36719,2.36719 q 0,-0.27734 -0.10938,-0.42578 -0.10546,-0.15234 -0.36328,-0.22656 -0.17578,-0.0508 -0.48437,-0.0547 -0.3086,-0.004 -0.64453,-0.004 l -0.32813,0 0,1.44922 0.10938,0 q 0.63281,0 0.90625,-0.004 0.27343,-0.004 0.5039,-0.10157 0.23438,-0.0977 0.32032,-0.25781 0.0898,-0.16406 0.0898,-0.375 z" /><path
           id="path5566"
           style=""
           d="m 300.16425,-353.05423 q 0,0.39063 -0.13672,0.76563 -0.13672,0.37109 -0.39063,0.625 -0.34765,0.34375 -0.77734,0.51953 -0.42578,0.17578 -1.0625,0.17578 l -0.9336,0 0,1.89453 -1.5,0 0,-5.81641 2.46875,0 q 0.55469,0 0.9336,0.0977 0.38281,0.0937 0.67578,0.28516 0.35156,0.23046 0.53516,0.58984 0.1875,0.35937 0.1875,0.86328 z m -1.55079,0.0352 q 0,-0.2461 -0.13281,-0.42188 -0.13281,-0.17969 -0.30859,-0.25 -0.23438,-0.0937 -0.45703,-0.10156 -0.22266,-0.0117 -0.59375,-0.0117 l -0.25782,0 0,1.74219 0.42969,0 q 0.38281,0 0.62891,-0.0469 0.25,-0.0469 0.41797,-0.1875 0.14453,-0.125 0.20703,-0.29687 0.0664,-0.17578 0.0664,-0.42578 z" /><path
           id="path5568"
           style=""
           d="m 305.76971,-349.07376 -4.5664,0 0,-0.96094 q 0.52344,-0.3789 1.04687,-0.80469 0.52735,-0.42578 0.84375,-0.73437 0.47266,-0.45703 0.67188,-0.79688 0.19922,-0.33984 0.19922,-0.67187 0,-0.39844 -0.25782,-0.61328 -0.2539,-0.21875 -0.73437,-0.21875 -0.35938,0 -0.75781,0.14844 -0.39453,0.14843 -0.73438,0.3789 l -0.125,0 0,-1.29297 q 0.27735,-0.12109 0.81641,-0.24218 0.54297,-0.1211 1.08594,-0.1211 1.09375,0 1.66796,0.46094 0.57422,0.45703 0.57422,1.29687 0,0.55079 -0.27734,1.04688 -0.27344,0.49609 -0.83984,1.02344 -0.35547,0.32812 -0.71485,0.60547 -0.35937,0.27343 -0.51172,0.38281 l 2.61328,0 0,1.11328 z" /></g><g
         id="text5462"
         style="font-style:normal;font-variant:normal;font-weight:bold;font-stretch:normal;font-size:8px;line-height:125%;font-family:Verdana;-inkscape-font-specification:'Verdana Bold';letter-spacing:0px;word-spacing:0px;fill:#000000;fill-opacity:1;stroke:none;stroke-width:1px;stroke-linecap:butt;stroke-linejoin:miter;stroke-opacity:1"
         transform="scale(1,-1)"><path
           id="path5571"
           style=""
           d="m 328.1799,-349.07376 -4.19531,0 0,-5.81641 1.5,0 0,4.69141 2.69531,0 0,1.125 z" /><path
           id="path5573"
           style=""
           d="m 333.87912,-353.05423 q 0,0.39063 -0.13672,0.76563 -0.13672,0.37109 -0.39062,0.625 -0.34766,0.34375 -0.77735,0.51953 -0.42578,0.17578 -1.0625,0.17578 l -0.93359,0 0,1.89453 -1.5,0 0,-5.81641 2.46875,0 q 0.55469,0 0.93359,0.0977 0.38281,0.0937 0.67578,0.28516 0.35157,0.23046 0.53516,0.58984 0.1875,0.35937 0.1875,0.86328 z m -1.55078,0.0352 q 0,-0.2461 -0.13281,-0.42188 -0.13282,-0.17969 -0.3086,-0.25 -0.23437,-0.0937 -0.45703,-0.10156 -0.22266,-0.0117 -0.59375,-0.0117 l -0.25781,0 0,1.74219 0.42969,0 q 0.38281,0 0.6289,-0.0469 0.25,-0.0469 0.41797,-0.1875 0.14453,-0.125 0.20703,-0.29687 0.0664,-0.17578 0.0664,-0.42578 z" /><path
           id="path5575"
           style=""
           d="m 339.48459,-349.07376 -4.56641,0 0,-0.96094 q 0.52344,-0.3789 1.04688,-0.80469 0.52734,-0.42578 0.84375,-0.73437 0.47265,-0.45703 0.67187,-0.79688 0.19922,-0.33984 0.19922,-0.67187 0,-0.39844 -0.25781,-0.61328 -0.25391,-0.21875 -0.73438,-0.21875 -0.35937,0 -0.75781,0.14844 -0.39453,0.14843 -0.73437,0.3789 l -0.125,0 0,-1.29297 q 0.27734,-0.12109 0.8164,-0.24218 0.54297,-0.1211 1.08594,-0.1211 1.09375,0 1.66797,0.46094 0.57422,0.45703 0.57422,1.29687 0,0.55079 -0.27735,1.04688 -0.27343,0.49609 -0.83984,1.02344 -0.35547,0.32812 -0.71484,0.60547 -0.35938,0.27343 -0.51172,0.38281 l 2.61328,0 0,1.11328 z" /></g><g
         id="text5466"
         style="font-style:normal;font-variant:normal;font-weight:bold;font-stretch:normal;font-size:8px;line-height:125%;font-family:Verdana;-inkscape-font-specification:'Verdana Bold';letter-spacing:0px;word-spacing:0px;fill:#000000;fill-opacity:1;stroke:none;stroke-width:1px;stroke-linecap:butt;stroke-linejoin:miter;stroke-opacity:1"
         transform="scale(1,-1)"><path
           id="path5518"
           style=""
           d="m 257.42744,-315.54938 q -0.39062,0.15235 -1.03515,0.30469 -0.64453,0.14844 -1.28516,0.14844 -1.48437,0 -2.32422,-0.80469 -0.83984,-0.80859 -0.83984,-2.23047 0,-1.35547 0.84766,-2.18359 0.84765,-0.83203 2.36328,-0.83203 0.57422,0 1.09375,0.10547 0.51953,0.10156 1.15625,0.41015 l 0,1.36328 -0.16797,0 q -0.10938,-0.082 -0.32031,-0.23047 -0.21094,-0.15234 -0.40625,-0.25781 -0.22657,-0.125 -0.53125,-0.21484 -0.30079,-0.0899 -0.64063,-0.0899 -0.39844,0 -0.72266,0.11719 -0.32421,0.11719 -0.58203,0.35938 -0.24609,0.23437 -0.39062,0.59765 -0.14063,0.35938 -0.14063,0.83203 0,0.96485 0.51172,1.47657 0.51172,0.51172 1.51172,0.51172 0.0859,0 0.1875,-0.004 0.10547,-0.004 0.19141,-0.0117 l 0,-1.14062 -1.16016,0 0,-1.09766 2.68359,0 0,2.87109 z" /><path
           id="path5520"
           style=""
           d="m 264.15791,-315.21735 -1.55078,0 -0.40234,-1.17578 -2.15625,0 -0.40235,1.17578 -1.51171,0 2.14843,-5.8164 1.72657,0 2.14843,5.8164 z m -2.3164,-2.24218 -0.71485,-2.08594 -0.71484,2.08594 1.42969,0 z" /><path
           id="path5522"
           style=""
           d="m 268.14619,-315.21735 -3.40625,0 0,-1.03125 0.95313,0 0,-3.7539 -0.95313,0 0,-1.03125 3.40625,0 0,1.03125 -0.95312,0 0,3.7539 0.95312,0 0,1.03125 z" /><path
           id="path5524"
           style=""
           d="m 274.66573,-315.21735 -1.44532,0 -2.46875,-3.99218 0,3.99218 -1.375,0 0,-5.8164 1.79297,0 2.1211,3.33203 0,-3.33203 1.375,0 0,5.8164 z" /></g><g
         id="text5470"
         style="font-style:normal;font-variant:normal;font-weight:bold;font-stretch:normal;font-size:8px;line-height:125%;font-family:Verdana;-inkscape-font-specification:'Verdana Bold';letter-spacing:0px;word-spacing:0px;fill:#000000;fill-opacity:1;stroke:none;stroke-width:1px;stroke-linecap:butt;stroke-linejoin:miter;stroke-opacity:1"
         transform="scale(1,-1)"><path
           id="path5511"
           style=""
           d="m 293.92401,-315.22125 -4.19531,0 0,-5.81641 1.5,0 0,4.69141 2.69531,0 0,1.125 z" /><path
           id="path5513"
           style=""
           d="m 299.62323,-319.20172 q 0,0.39062 -0.13672,0.76562 -0.13672,0.3711 -0.39062,0.625 -0.34766,0.34375 -0.77735,0.51954 -0.42578,0.17578 -1.0625,0.17578 l -0.93359,0 0,1.89453 -1.5,0 0,-5.81641 2.46875,0 q 0.55469,0 0.93359,0.0977 0.38281,0.0937 0.67578,0.28515 0.35157,0.23047 0.53516,0.58985 0.1875,0.35937 0.1875,0.86328 z m -1.55078,0.0352 q 0,-0.2461 -0.13281,-0.42188 -0.13282,-0.17969 -0.3086,-0.25 -0.23437,-0.0937 -0.45703,-0.10156 -0.22266,-0.0117 -0.59375,-0.0117 l -0.25781,0 0,1.74219 0.42969,0 q 0.38281,0 0.6289,-0.0469 0.25,-0.0469 0.41797,-0.1875 0.14453,-0.125 0.20703,-0.29687 0.0664,-0.17578 0.0664,-0.42578 z" /><path
           id="path5515"
           style=""
           d="m 305.31073,-316.5611 -0.79297,0 0,1.35547 -1.43359,0 0,-1.35547 -2.81641,0 0,-1.10156 2.72266,-3.375 1.52734,0 0,3.41406 0.79297,0 0,1.0625 z m -2.22656,-1.0625 0,-2.10156 -1.69141,2.10156 1.69141,0 z" /></g><g
         id="text5474"
         style="font-style:normal;font-variant:normal;font-weight:bold;font-stretch:normal;font-size:8px;line-height:125%;font-family:Verdana;-inkscape-font-specification:'Verdana Bold';letter-spacing:0px;word-spacing:0px;fill:#000000;fill-opacity:1;stroke:none;stroke-width:1px;stroke-linecap:butt;stroke-linejoin:miter;stroke-opacity:1"
         transform="scale(1,-1)"><path
           id="path5496"
           style=""
           d="m 315.50021,-315.21344 -4.19531,0 0,-5.81641 1.5,0 0,4.69141 2.69531,0 0,1.125 z" /><path
           id="path5498"
           style=""
           d="m 321.19943,-319.19391 q 0,0.39063 -0.13672,0.76563 -0.13672,0.37109 -0.39062,0.625 -0.34766,0.34375 -0.77735,0.51953 -0.42578,0.17578 -1.0625,0.17578 l -0.93359,0 0,1.89453 -1.5,0 0,-5.81641 2.46875,0 q 0.55469,0 0.93359,0.0977 0.38282,0.0937 0.67579,0.28516 0.35156,0.23047 0.53515,0.58984 0.1875,0.35938 0.1875,0.86328 z m -1.55078,0.0352 q 0,-0.2461 -0.13281,-0.42188 -0.13281,-0.17968 -0.3086,-0.25 -0.23437,-0.0937 -0.45703,-0.10156 -0.22265,-0.0117 -0.59375,-0.0117 l -0.25781,0 0,1.74219 0.42969,0 q 0.38281,0 0.6289,-0.0469 0.25,-0.0469 0.41797,-0.1875 0.14453,-0.125 0.20703,-0.29687 0.0664,-0.17578 0.0664,-0.42578 z" /><path
           id="path5500"
           style=""
           d="m 326.88693,-316.55328 -0.79297,0 0,1.35547 -1.43359,0 0,-1.35547 -2.81641,0 0,-1.10157 2.72266,-3.375 1.52734,0 0,3.41407 0.79297,0 0,1.0625 z m -2.22656,-1.0625 0,-2.10157 -1.69141,2.10157 1.69141,0 z" /><path
           id="path5502"
           style=""
           d="m 333.34396,-317.35406 -5.21875,2.16796 0,-1.12109 3.65235,-1.49219 -3.65235,-1.49218 0,-1.1211 5.21875,2.16797 0,0.89063 z" /><path
           id="path5504"
           style=""
           d="m 340.15646,-321.02985 -2.12109,5.81641 -1.67969,0 -2.12109,-5.81641 1.57422,0 1.40625,4.08594 1.40625,-4.08594 1.53515,0 z" /><path
           id="path5506"
           style=""
           d="m 343.62131,-315.10016 q -0.64844,0 -1.19922,-0.1914 -0.54688,-0.19141 -0.94141,-0.57032 -0.39453,-0.3789 -0.61328,-0.94531 -0.21484,-0.56641 -0.21484,-1.30859 0,-0.69141 0.20703,-1.25391 0.20703,-0.5625 0.60156,-0.96484 0.37891,-0.38672 0.9375,-0.59766 0.5625,-0.21094 1.22656,-0.21094 0.36719,0 0.66016,0.043 0.29687,0.0391 0.54687,0.10547 0.26172,0.0742 0.47266,0.16797 0.21484,0.0898 0.375,0.16797 l 0,1.41015 -0.17187,0 q -0.10938,-0.0937 -0.27735,-0.22265 -0.16406,-0.12891 -0.375,-0.25391 -0.21484,-0.125 -0.46484,-0.21094 -0.25,-0.0859 -0.53516,-0.0859 -0.3164,0 -0.60156,0.10156 -0.28516,0.0977 -0.52734,0.32812 -0.23047,0.22266 -0.375,0.58985 -0.14063,0.36719 -0.14063,0.89062 0,0.54688 0.15234,0.91407 0.15625,0.36718 0.39063,0.57812 0.23828,0.21484 0.53125,0.30859 0.29297,0.0899 0.57812,0.0899 0.27344,0 0.53907,-0.082 0.26953,-0.082 0.49609,-0.22266 0.19141,-0.11328 0.35547,-0.24219 0.16406,-0.1289 0.26953,-0.22265 l 0.15625,0 0,1.39062 q -0.21875,0.0977 -0.41797,0.1836 -0.19922,0.0859 -0.41797,0.14843 -0.28515,0.082 -0.53515,0.125 -0.25,0.043 -0.6875,0.043 z" /><path
           id="path5508"
           style=""
           d="m 352.16428,-315.21344 -1.55079,0 -0.40234,-1.17578 -2.15625,0 -0.40234,1.17578 -1.51172,0 2.14844,-5.81641 1.72656,0 2.14844,5.81641 z m -2.31641,-2.24219 -0.71484,-2.08593 -0.71485,2.08593 1.42969,0 z" /></g></g></g></svg>