<?xml version="1.0" encoding="UTF-8" standalone="no"?>
<!-- Created with Inkscape (http://www.inkscape.org/) -->

<svg
   xmlns:dc="http://purl.org/dc/elements/1.1/"
   xmlns:cc="http://creativecommons.org/ns#"
   xmlns:rdf="http://www.w3.org/1999/02/22-rdf-syntax-ns#"
   xmlns:svg="http://www.w3.org/2000/svg"
   xmlns="http://www.w3.org/2000/svg"
   xmlns:sodipodi="http://sodipodi.sourceforge.net/DTD/sodipodi-0.dtd"
   xmlns:inkscape="http://www.inkscape.org/namespaces/inkscape"
   width="210mm"
   height="297mm"
   viewBox="0 0 744.09448819 1052.3622047"
   id="svg5219"
   version="1.1"
   inkscape:version="0.91 r13725"
   sodipodi:docname="buffered-mult-panel.svg">
  <defs
     id="defs5221" />
  <sodipodi:namedview
     id="base"
     pagecolor="#ffffff"
     bordercolor="#666666"
     borderopacity="1.0"
     inkscape:pageopacity="0.0"
     inkscape:pageshadow="2"
     inkscape:zoom="2.3279289"
     inkscape:cx="189.6266"
     inkscape:cy="227.65755"
     inkscape:document-units="px"
     inkscape:current-layer="layer1"
     showgrid="false"
     inkscape:window-width="1545"
     inkscape:window-height="1226"
     inkscape:window-x="551"
     inkscape:window-y="23"
     inkscape:window-maximized="0" />
  <metadata
     id="metadata5224">
    <rdf:RDF>
      <cc:Work
         rdf:about="">
        <dc:format>image/svg+xml</dc:format>
        <dc:type
           rdf:resource="http://purl.org/dc/dcmitype/StillImage" />
        <dc:title></dc:title>
      </cc:Work>
    </rdf:RDF>
  </metadata>
  <g
     inkscape:label="Layer 1"
     inkscape:groupmode="layer"
     id="layer1">
    <g
       id="g6030">
      <rect
         y="597.05219"
         x="0.0050143613"
         height="455.30493"
         width="53.139576"
         id="rect5767"
         style="opacity:1;fill:none;fill-opacity:1;stroke:#0000ff;stroke-width:0.03543307;stroke-miterlimit:4;stroke-dasharray:none;stroke-opacity:1" />
      <circle
         r="11.498049"
         cy="967.14569"
         cx="26.574802"
         id="path5848"
         style="opacity:1;fill:none;fill-opacity:1;stroke:#0000ff;stroke-width:0.03539818;stroke-miterlimit:4;stroke-dasharray:none;stroke-opacity:1" />
      <circle
         r="11.498049"
         style="opacity:1;fill:none;fill-opacity:1;stroke:#0000ff;stroke-width:0.03539818;stroke-miterlimit:4;stroke-dasharray:none;stroke-opacity:1"
         id="circle5850"
         cx="26.574802"
         cy="926.04333" />
      <circle
         r="11.498049"
         cy="884.94098"
         cx="26.574802"
         id="circle5852"
         style="opacity:1;fill:none;fill-opacity:1;stroke:#0000ff;stroke-width:0.03539818;stroke-miterlimit:4;stroke-dasharray:none;stroke-opacity:1" />
      <circle
         r="11.498049"
         style="opacity:1;fill:none;fill-opacity:1;stroke:#0000ff;stroke-width:0.03539818;stroke-miterlimit:4;stroke-dasharray:none;stroke-opacity:1"
         id="circle5854"
         cx="26.574802"
         cy="843.83856" />
      <circle
         r="11.498049"
         cy="802.73621"
         cx="26.574802"
         id="circle5856"
         style="opacity:1;fill:none;fill-opacity:1;stroke:#0000ff;stroke-width:0.03539818;stroke-miterlimit:4;stroke-dasharray:none;stroke-opacity:1" />
      <circle
         r="11.498049"
         style="opacity:1;fill:none;fill-opacity:1;stroke:#0000ff;stroke-width:0.03539818;stroke-miterlimit:4;stroke-dasharray:none;stroke-opacity:1"
         id="circle5858"
         cx="26.574802"
         cy="761.63385" />
      <circle
         r="11.498049"
         cy="720.53149"
         cx="26.574802"
         id="circle5860"
         style="opacity:1;fill:none;fill-opacity:1;stroke:#0000ff;stroke-width:0.03539818;stroke-miterlimit:4;stroke-dasharray:none;stroke-opacity:1" />
      <circle
         r="5.6594996"
         cy="1041.7323"
         cx="26.574802"
         id="path5864"
         style="opacity:1;fill:none;fill-opacity:1;stroke:#0000ff;stroke-width:0.03543307;stroke-miterlimit:4;stroke-dasharray:none;stroke-opacity:1" />
      <circle
         style="opacity:1;fill:none;fill-opacity:1;stroke:#0000ff;stroke-width:0.03543307;stroke-miterlimit:4;stroke-dasharray:none;stroke-opacity:1"
         id="circle5866"
         cx="26.574802"
         cy="607.67719"
         r="5.6594996" />
      <g
         transform="translate(-0.32924025,14.134707)"
         inkscape:transform-center-y="-6.2202199"
         id="g5901">
        <path
           inkscape:connector-curvature="0"
           id="path5886"
           style="font-style:normal;font-variant:normal;font-weight:normal;font-stretch:normal;font-size:10px;line-height:125%;font-family:Cambria;-inkscape-font-specification:Cambria;letter-spacing:0px;word-spacing:0px;fill:#000000;fill-opacity:1;stroke:none;stroke-width:1px;stroke-linecap:butt;stroke-linejoin:miter;stroke-opacity:1"
           d="m 6.9136992,622.40472 q 0.8203125,0.78125 1.328125,1.36719 l -0.78125,0.70313 q -1.484375,-1.75782 -3.3984375,-3.16407 l 0.546875,-0.70312 q 0.703125,0.42969 1.5625,1.21094 1.171875,-1.17188 2.3828125,-2.89063 l -6.1328125,0.27344 -0.15625,-0.97656 6.8359375,-0.15625 0.390625,-0.11719 0.5859378,0.625 q 0.195312,0.3125 -0.1562503,0.27344 -0.9765625,1.28906 -3.0078125,3.55468 z" />
        <path
           inkscape:connector-curvature="0"
           id="path5888"
           style="font-style:normal;font-variant:normal;font-weight:normal;font-stretch:normal;font-size:10px;line-height:125%;font-family:Cambria;-inkscape-font-specification:Cambria;letter-spacing:0px;word-spacing:0px;fill:#000000;fill-opacity:1;stroke:none;stroke-width:1px;stroke-linecap:butt;stroke-linejoin:miter;stroke-opacity:1"
           d="m 17.148074,623.38129 q 1.71875,-0.66407 3.164063,-2.65625 l 0.546875,0.74218 q -1.484375,2.03125 -3.75,2.92969 l -0.3125,0.15625 -0.625,-0.46875 0.07813,-0.19531 0,-6.28906 0.820312,0 q 0.351563,0.0781 0.07813,0.3125 l 0,5.46875 z m -5.234375,1.05468 q 1.953125,-1.875 1.953125,-4.64843 l 0,-1.75782 0.820313,0 q 0.351562,0.0781 0.07813,0.3125 l 0,1.40625 q 0,3.28125 -2.070313,5.19532 l -0.78125,-0.50782 z" />
        <path
           inkscape:connector-curvature="0"
           id="path5890"
           style="font-style:normal;font-variant:normal;font-weight:normal;font-stretch:normal;font-size:10px;line-height:125%;font-family:Cambria;-inkscape-font-specification:Cambria;letter-spacing:0px;word-spacing:0px;fill:#000000;fill-opacity:1;stroke:none;stroke-width:1px;stroke-linecap:butt;stroke-linejoin:miter;stroke-opacity:1"
           d="m 27.069949,620.1391 3.203125,0 0,0.85937 -3.203125,0 q 0,2.73438 -2.460937,4.10157 l -0.625,-0.625 q 2.226562,-1.25 2.1875,-3.47657 l -3.90625,0 0,-0.85937 3.90625,0 0,-1.48438 q -1.09375,0.11719 -2.851563,0.19532 l -0.351562,-0.82032 q 3.789062,-0.0781 5.820312,-0.70312 l 0.429688,0.82031 q 0.117187,0.27344 -0.351563,0.0781 -0.820312,0.19531 -1.796875,0.3125 l 0,1.60156 z" />
        <path
           inkscape:connector-curvature="0"
           id="path5892"
           style="font-style:normal;font-variant:normal;font-weight:normal;font-stretch:normal;font-size:10px;line-height:125%;font-family:Cambria;-inkscape-font-specification:Cambria;letter-spacing:0px;word-spacing:0px;fill:#000000;fill-opacity:1;stroke:none;stroke-width:1px;stroke-linecap:butt;stroke-linejoin:miter;stroke-opacity:1"
           d="m 39.960574,617.79535 q 0.3125,0 0.507813,-0.19531 0.195312,-0.19532 0.195312,-0.50782 0,-0.3125 -0.195312,-0.50781 -0.195313,-0.19531 -0.507813,-0.19531 -0.3125,0 -0.507812,0.19531 -0.195313,0.19531 -0.195313,0.50781 0,0.3125 0.195313,0.50782 0.195312,0.19531 0.507812,0.19531 z m 0,0.39062 q -0.46875,0 -0.78125,-0.3125 -0.3125,-0.3125 -0.3125,-0.78125 0,-0.46875 0.3125,-0.78125 0.3125,-0.3125 0.78125,-0.3125 0.46875,0 0.78125,0.3125 0.3125,0.3125 0.3125,0.78125 0,0.46875 -0.3125,0.78125 -0.3125,0.3125 -0.78125,0.3125 z m -6.992187,0.50782 0,-0.85938 5.78125,0 1.015625,0.74219 q -0.195313,4.72656 -5.351563,6.17187 l -0.703125,-0.85937 q 4.882813,-1.13281 5.117188,-5.19531 l -5.859375,0 z" />
        <path
           inkscape:connector-curvature="0"
           id="path5894"
           style="font-style:normal;font-variant:normal;font-weight:normal;font-stretch:normal;font-size:10px;line-height:125%;font-family:Cambria;-inkscape-font-specification:Cambria;letter-spacing:0px;word-spacing:0px;fill:#000000;fill-opacity:1;stroke:none;stroke-width:1px;stroke-linecap:butt;stroke-linejoin:miter;stroke-opacity:1"
           d="m 47.148074,623.38129 q 1.71875,-0.66407 3.164063,-2.65625 l 0.546875,0.74218 q -1.484375,2.03125 -3.75,2.92969 l -0.3125,0.15625 -0.625,-0.46875 0.07813,-0.19531 0,-6.28906 0.820312,0 q 0.351563,0.0781 0.07813,0.3125 l 0,5.46875 z m -5.234375,1.05468 q 1.953125,-1.875 1.953125,-4.64843 l 0,-1.75782 0.820313,0 q 0.351562,0.0781 0.07813,0.3125 l 0,1.40625 q 0,3.28125 -2.070313,5.19532 l -0.78125,-0.50782 z" />
      </g>
      <path
         id="rect5908"
         d="m 0,675.92188 0,7.08593 15.666016,0 a 11.49804,11.509388 0 0 1 -0.589844,-3.58984 11.49804,11.509388 0 0 1 0.548828,-3.49609 l -15.625,0 z m 37.515625,0 a 11.49804,11.509388 0 0 1 0.556641,3.49609 11.49804,11.509388 0 0 1 -0.582032,3.58984 l 15.660157,0 0,-7.08593 -15.634766,0 z"
         style="opacity:1;fill:#000000;fill-opacity:1;stroke:none;stroke-width:0.03543307;stroke-miterlimit:4;stroke-dasharray:none;stroke-opacity:1"
         inkscape:connector-curvature="0" />
      <path
         id="circle5862"
         d="m 38.072843,679.41779 a 11.49804,11.509388 0 0 1 -11.498041,11.50938 11.49804,11.509388 0 0 1 -11.49804,-11.50938 11.49804,11.509388 0 0 1 11.49804,-11.50939 11.49804,11.509388 0 0 1 11.498041,11.50939 z"
         style="opacity:1;fill:none;fill-opacity:1;stroke:#0000ff;stroke-width:0.03541562;stroke-miterlimit:4;stroke-dasharray:none;stroke-opacity:1"
         inkscape:connector-curvature="0" />
      <path
         inkscape:connector-curvature="0"
         style="opacity:1;fill:#000000;fill-opacity:1;stroke:none;stroke-width:0.03543307;stroke-miterlimit:4;stroke-dasharray:none;stroke-opacity:1"
         d="m 0,840.29596 0,7.08593 15.666016,0 a 11.49804,11.509388 0 0 1 -0.589844,-3.58984 11.49804,11.509388 0 0 1 0.548828,-3.49609 l -15.625,0 z m 37.515625,0 a 11.49804,11.509388 0 0 1 0.556641,3.49609 11.49804,11.509388 0 0 1 -0.582032,3.58984 l 15.660157,0 0,-7.08593 -15.634766,0 z"
         id="path5949" />
      <g
         transform="translate(0,-9.020894)"
         id="text5951"
         style="font-style:normal;font-variant:normal;font-weight:normal;font-stretch:normal;font-size:40px;line-height:125%;font-family:Verdana;-inkscape-font-specification:Verdana;letter-spacing:0px;word-spacing:0px;fill:#000000;fill-opacity:1;stroke:none;stroke-width:1px;stroke-linecap:butt;stroke-linejoin:miter;stroke-opacity:1">
        <path
           id="path5956"
           style="font-size:6.25px"
           d="m 5.9174843,1021.9205 q 1.2207031,1.5381 1.7333984,3.2471 l -0.6591797,0.2197 q -0.6103515,-1.9287 -1.586914,-3.0761 l 0.5126953,-0.3907 z m -1.8554688,0.5616 q 0.1953125,0.122 -0.048828,0.2197 -0.4394531,1.5381 -1.4160156,2.8076 l -0.5615235,-0.3662 q 1.0742188,-1.294 1.4404297,-2.9297 l 0.5859375,0.2686 z m 2.9296875,-1.9043 q 0.3173828,0.2685 0.78125,0.7568 l -0.3173828,0.293 q -0.4394531,-0.4883 -0.78125,-0.7813 l 0.3173828,-0.2685 z m -0.5859375,0.3662 q 0.366211,0.3418 0.78125,0.83 l -0.3662109,0.2686 q -0.3662109,-0.4883 -0.7568359,-0.8301 l 0.3417968,-0.2685 z"
           inkscape:connector-curvature="0" />
        <path
           id="path5958"
           style="font-size:6.25px"
           d="m 8.3588905,1023.7272 0,-0.5371 5.4443355,0 0,0.5371 -5.4443355,0 z"
           inkscape:connector-curvature="0" />
        <path
           id="path5960"
           style="font-size:6.25px"
           d="m 18.734867,1022.653 -1.391601,0.049 q -0.146485,2.0752 -1.928711,3.2715 l -0.415039,-0.4151 q 1.68457,-1.123 1.782226,-2.8564 l -1.733398,0.049 -0.04883,-0.4883 1.80664,-0.049 0,-1.3672 0.512695,0 q 0.268555,0.049 0.04883,0.1953 l 0,1.1719 1.928711,-0.073 0,1.5136 q 0,1.1963 -0.219727,1.6846 -0.219727,0.4883 -0.927734,0.4883 l -0.585938,0 -0.07324,-0.6104 q 0.366211,0.049 0.634766,0.049 0.36621,0 0.463867,-0.2442 0.146484,-0.3906 0.146484,-1.3672 l 0,-1.0009 z"
           inkscape:connector-curvature="0" />
        <path
           id="path5962"
           style="font-size:6.25px"
           d="m 23.397953,1022.7994 q 1.196289,0.3418 2.416992,0.9278 l -0.292969,0.5615 q -1.293945,-0.6592 -2.124023,-0.8789 l 0,2.5391 -0.561523,0 0,-4.8829 0.488281,0 q 0.292969,0.024 0.07324,0.1954 l 0,1.538 z"
           inkscape:connector-curvature="0" />
        <path
           id="path5964"
           style="font-size:6.25px"
           d="m 31.796391,1025.3141 -0.561524,0 0,-0.2686 -2.709961,0 0,0.3907 -0.561523,0 0,-3.8086 3.833008,0 0,3.6865 z m -3.271485,-3.1494 0,2.3437 2.709961,0 0,-2.3437 -2.709961,0 z"
           inkscape:connector-curvature="0" />
        <path
           id="path5966"
           style="font-size:6.25px"
           d="m 33.627445,1024.5084 5.053711,0 0,0.5371 -5.053711,0 0,-0.5371 z m 0.610352,-2.6611 3.588867,0 0,0.5371 -3.588867,0 0,-0.5371 z"
           inkscape:connector-curvature="0" />
        <path
           id="path5968"
           style="font-size:6.25px"
           d="m 44.125492,1022.3844 q -0.463867,2.6611 -3.051758,3.8086 l -0.439453,-0.4639 q 2.392578,-0.9765 2.88086,-3.3691 l -1.953125,0 q -0.561524,0.9277 -1.171875,1.4892 l -0.488282,-0.3173 q 1.269532,-1.1475 1.635742,-2.6856 l 0.561524,0.1953 q 0.146484,0.073 -0.04883,0.1465 -0.09766,0.3174 -0.268555,0.6348 l 1.757813,0 0.219726,-0.1221 0.439453,0.4395 q 0.170899,0.1709 -0.07324,0.2441 z"
           inkscape:connector-curvature="0" />
        <path
           id="path5970"
           style="font-size:6.25px"
           d="m 48.983891,1023.5074 q 1.049804,0.8057 2.075195,1.8555 l -0.488281,0.4151 q -1.025391,-1.0743 -1.977539,-1.8067 -0.952149,1.0254 -2.172852,1.8311 l -0.463867,-0.4151 q 2.58789,-1.6845 3.320312,-3.3691 l -2.661133,0.1709 -0.07324,-0.586 2.832032,-0.122 0.292968,-0.073 0.390625,0.3907 q 0.170899,0.1709 -0.09766,0.2197 -0.463867,0.8057 -0.976562,1.4892 z"
           inkscape:connector-curvature="0" />
      </g>
    </g>
  </g>
</svg>
