<?xml version="1.0" encoding="UTF-8" standalone="no"?>
<!-- Created with Inkscape (http://www.inkscape.org/) -->

<svg
   xmlns:dc="http://purl.org/dc/elements/1.1/"
   xmlns:cc="http://creativecommons.org/ns#"
   xmlns:rdf="http://www.w3.org/1999/02/22-rdf-syntax-ns#"
   xmlns:svg="http://www.w3.org/2000/svg"
   xmlns="http://www.w3.org/2000/svg"
   xmlns:sodipodi="http://sodipodi.sourceforge.net/DTD/sodipodi-0.dtd"
   xmlns:inkscape="http://www.inkscape.org/namespaces/inkscape"
   width="210mm"
   height="297mm"
   viewBox="0 0 744.09448819 1052.3622047"
   id="svg5219"
   version="1.1"
   inkscape:version="0.91 r13725"
   sodipodi:docname="808bd-host-panel.svg">
  <defs
     id="defs5221" />
  <sodipodi:namedview
     id="base"
     pagecolor="#ffffff"
     bordercolor="#666666"
     borderopacity="1.0"
     inkscape:pageopacity="0.0"
     inkscape:pageshadow="2"
     inkscape:zoom="2.3279289"
     inkscape:cx="-15.706131"
     inkscape:cy="230.51274"
     inkscape:document-units="px"
     inkscape:current-layer="layer1"
     showgrid="false"
     inkscape:window-width="1545"
     inkscape:window-height="1226"
     inkscape:window-x="491"
     inkscape:window-y="23"
     inkscape:window-maximized="0" />
  <metadata
     id="metadata5224">
    <rdf:RDF>
      <cc:Work
         rdf:about="">
        <dc:format>image/svg+xml</dc:format>
        <dc:type
           rdf:resource="http://purl.org/dc/dcmitype/StillImage" />
        <dc:title />
      </cc:Work>
    </rdf:RDF>
  </metadata>
  <g
     inkscape:label="Layer 1"
     inkscape:groupmode="layer"
     id="layer1">
    <rect
       style="opacity:1;fill:none;fill-opacity:1;stroke:#0000ff;stroke-width:0.04090639;stroke-miterlimit:4;stroke-dasharray:none;stroke-opacity:1"
       id="rect5767"
       width="70.825233"
       height="455.29947"
       x="0.0077510206"
       y="597.05493" />
    <circle
       style="opacity:1;fill:none;fill-opacity:1;stroke:#0000ff;stroke-width:0.03539818;stroke-miterlimit:4;stroke-dasharray:none;stroke-opacity:1"
       id="path5848"
       cx="35.433071"
       cy="983.44489"
       r="11.498049" />
    <circle
       cy="940.92517"
       cx="35.433071"
       id="circle5850"
       style="opacity:1;fill:none;fill-opacity:1;stroke:#0000ff;stroke-width:0.03539818;stroke-miterlimit:4;stroke-dasharray:none;stroke-opacity:1"
       r="11.498049" />
    <circle
       style="opacity:1;fill:none;fill-opacity:1;stroke:#0000ff;stroke-width:0.03539818;stroke-miterlimit:4;stroke-dasharray:none;stroke-opacity:1"
       id="circle5852"
       cx="35.433071"
       cy="898.40552"
       r="11.498049" />
    <circle
       style="opacity:1;fill:none;fill-opacity:1;stroke:#0000ff;stroke-width:0.03543307;stroke-miterlimit:4;stroke-dasharray:none;stroke-opacity:1"
       id="path5864"
       cx="26.574802"
       cy="1041.7323"
       r="5.6594996" />
    <circle
       r="5.6594996"
       cy="607.67719"
       cx="26.574802"
       id="circle5866"
       style="opacity:1;fill:none;fill-opacity:1;stroke:#0000ff;stroke-width:0.03543307;stroke-miterlimit:4;stroke-dasharray:none;stroke-opacity:1" />
    <g
       style="font-style:normal;font-variant:normal;font-weight:normal;font-stretch:normal;font-size:40px;line-height:125%;font-family:Verdana;-inkscape-font-specification:Verdana;letter-spacing:0px;word-spacing:0px;fill:#000000;fill-opacity:1;stroke:none;stroke-width:1px;stroke-linecap:butt;stroke-linejoin:miter;stroke-opacity:1"
       id="text5951"
       transform="translate(8.8730006,-7.3026285)">
      <path
         inkscape:connector-curvature="0"
         d="m 5.9174843,1021.9205 q 1.2207031,1.5381 1.7333984,3.2471 l -0.6591797,0.2197 q -0.6103515,-1.9287 -1.586914,-3.0761 l 0.5126953,-0.3907 z m -1.8554688,0.5616 q 0.1953125,0.122 -0.048828,0.2197 -0.4394531,1.5381 -1.4160156,2.8076 l -0.5615235,-0.3662 q 1.0742188,-1.294 1.4404297,-2.9297 l 0.5859375,0.2686 z m 2.9296875,-1.9043 q 0.3173828,0.2685 0.78125,0.7568 l -0.3173828,0.293 q -0.4394531,-0.4883 -0.78125,-0.7813 l 0.3173828,-0.2685 z m -0.5859375,0.3662 q 0.366211,0.3418 0.78125,0.83 l -0.3662109,0.2686 q -0.3662109,-0.4883 -0.7568359,-0.8301 l 0.3417968,-0.2685 z"
         style="font-size:6.25px"
         id="path5956" />
      <path
         inkscape:connector-curvature="0"
         d="m 8.3588905,1023.7272 0,-0.5371 5.4443355,0 0,0.5371 -5.4443355,0 z"
         style="font-size:6.25px"
         id="path5958" />
      <path
         inkscape:connector-curvature="0"
         d="m 18.734867,1022.653 -1.391601,0.049 q -0.146485,2.0752 -1.928711,3.2715 l -0.415039,-0.4151 q 1.68457,-1.123 1.782226,-2.8564 l -1.733398,0.049 -0.04883,-0.4883 1.80664,-0.049 0,-1.3672 0.512695,0 q 0.268555,0.049 0.04883,0.1953 l 0,1.1719 1.928711,-0.073 0,1.5136 q 0,1.1963 -0.219727,1.6846 -0.219727,0.4883 -0.927734,0.4883 l -0.585938,0 -0.07324,-0.6104 q 0.366211,0.049 0.634766,0.049 0.36621,0 0.463867,-0.2442 0.146484,-0.3906 0.146484,-1.3672 l 0,-1.0009 z"
         style="font-size:6.25px"
         id="path5960" />
      <path
         inkscape:connector-curvature="0"
         d="m 23.397953,1022.7994 q 1.196289,0.3418 2.416992,0.9278 l -0.292969,0.5615 q -1.293945,-0.6592 -2.124023,-0.8789 l 0,2.5391 -0.561523,0 0,-4.8829 0.488281,0 q 0.292969,0.024 0.07324,0.1954 l 0,1.538 z"
         style="font-size:6.25px"
         id="path5962" />
      <path
         inkscape:connector-curvature="0"
         d="m 31.796391,1025.3141 -0.561524,0 0,-0.2686 -2.709961,0 0,0.3907 -0.561523,0 0,-3.8086 3.833008,0 0,3.6865 z m -3.271485,-3.1494 0,2.3437 2.709961,0 0,-2.3437 -2.709961,0 z"
         style="font-size:6.25px"
         id="path5964" />
      <path
         inkscape:connector-curvature="0"
         d="m 33.627445,1024.5084 5.053711,0 0,0.5371 -5.053711,0 0,-0.5371 z m 0.610352,-2.6611 3.588867,0 0,0.5371 -3.588867,0 0,-0.5371 z"
         style="font-size:6.25px"
         id="path5966" />
      <path
         inkscape:connector-curvature="0"
         d="m 44.125492,1022.3844 q -0.463867,2.6611 -3.051758,3.8086 l -0.439453,-0.4639 q 2.392578,-0.9765 2.88086,-3.3691 l -1.953125,0 q -0.561524,0.9277 -1.171875,1.4892 l -0.488282,-0.3173 q 1.269532,-1.1475 1.635742,-2.6856 l 0.561524,0.1953 q 0.146484,0.073 -0.04883,0.1465 -0.09766,0.3174 -0.268555,0.6348 l 1.757813,0 0.219726,-0.1221 0.439453,0.4395 q 0.170899,0.1709 -0.07324,0.2441 z"
         style="font-size:6.25px"
         id="path5968" />
      <path
         inkscape:connector-curvature="0"
         d="m 48.983891,1023.5074 q 1.049804,0.8057 2.075195,1.8555 l -0.488281,0.4151 q -1.025391,-1.0743 -1.977539,-1.8067 -0.952149,1.0254 -2.172852,1.8311 l -0.463867,-0.4151 q 2.58789,-1.6845 3.320312,-3.3691 l -2.661133,0.1709 -0.07324,-0.586 2.832032,-0.122 0.292968,-0.073 0.390625,0.3907 q 0.170899,0.1709 -0.09766,0.2197 -0.463867,0.8057 -0.976562,1.4892 z"
         style="font-size:6.25px"
         id="path5970" />
    </g>
    <circle
       cy="838.88068"
       cx="35.430367"
       id="circle4190"
       style="opacity:1;fill:none;fill-opacity:1;stroke:#0000ff;stroke-width:0.03543307;stroke-miterlimit:4;stroke-dasharray:none;stroke-opacity:1"
       r="13.266979" />
    <circle
       r="13.266979"
       style="opacity:1;fill:none;fill-opacity:1;stroke:#0000ff;stroke-width:0.03543307;stroke-miterlimit:4;stroke-dasharray:none;stroke-opacity:1"
       id="circle4192"
       cx="35.430367"
       cy="782.18774" />
    <circle
       cy="725.49481"
       cx="35.430367"
       id="circle4194"
       style="opacity:1;fill:none;fill-opacity:1;stroke:#0000ff;stroke-width:0.03543307;stroke-miterlimit:4;stroke-dasharray:none;stroke-opacity:1"
       r="13.266979" />
    <circle
       r="13.266979"
       style="opacity:1;fill:none;fill-opacity:1;stroke:#0000ff;stroke-width:0.03543307;stroke-miterlimit:4;stroke-dasharray:none;stroke-opacity:1"
       id="circle4196"
       cx="35.430367"
       cy="668.80194" />
    <g
       style="font-style:normal;font-variant:normal;font-weight:normal;font-stretch:normal;font-size:40px;line-height:125%;font-family:Verdana;-inkscape-font-specification:Verdana;letter-spacing:0px;word-spacing:0px;fill:#000000;fill-opacity:1;stroke:none;stroke-width:1px;stroke-linecap:butt;stroke-linejoin:miter;stroke-opacity:1"
       id="text4198">
      <path
         d="m 13.549641,626.4256 q 1.016845,0 1.589355,-0.56397 0.57251,-0.57251 0.57251,-1.35864 0,-0.68359 -0.546875,-1.2561 -0.546875,-0.57251 -1.66626,-0.57251 -1.11084,0 -1.606445,0.57251 -0.495606,0.57251 -0.495606,1.34155 0,0.86304 0.640869,1.3501 0.64087,0.48706 1.512452,0.48706 z m 0.09399,6.05835 q 1.068115,0 1.768799,-0.57251 0.709228,-0.58106 0.709228,-1.72608 0,-1.18774 -0.726318,-1.80297 -0.726319,-0.61524 -1.862793,-0.61524 -1.102295,0 -1.802979,0.63233 -0.692138,0.62377 -0.692138,1.73461 0,0.95704 0.632324,1.65772 0.640869,0.69214 1.973877,0.69214 z m -2.1875,-5.46875 q -0.640869,-0.27344 -0.999756,-0.64087 -0.6750489,-0.6836 -0.6750489,-1.77735 0,-1.36718 0.9912109,-2.34985 0.991211,-0.98266 2.811279,-0.98266 1.760254,0 2.76001,0.93139 0.999756,0.92285 0.999756,2.16187 0,1.14502 -0.581055,1.85425 -0.324707,0.40161 -1.008301,0.78613 0.760499,0.35034 1.19629,0.80322 0.811767,0.85449 0.811767,2.22168 0,1.61499 -1.085205,2.74292 -1.085205,1.11938 -3.067627,1.11938 -1.785889,0 -3.024902,-0.96557 -1.230469,-0.97412 -1.230469,-2.81983 0,-1.0852 0.5297852,-1.87133 0.5297848,-0.79468 1.5722658,-1.21338 z"
         style="font-style:normal;font-variant:normal;font-weight:normal;font-stretch:normal;font-size:17.5px;font-family:Helvetica;-inkscape-font-specification:Helvetica"
         id="path4190" />
      <path
         d="m 23.265217,621.29865 q 2.375488,0 3.435058,1.95678 0.820313,1.51245 0.820313,4.14429 0,2.49512 -0.743408,4.1272 -1.07666,2.34131 -3.520508,2.34131 -2.20459,0 -3.28125,-1.91407 -0.897217,-1.5979 -0.897217,-4.28955 0,-2.08496 0.53833,-3.58032 1.008301,-2.78564 3.648682,-2.78564 z m -0.01709,11.16821 q 1.196289,0 1.905518,-1.05957 0.709228,-1.05957 0.709228,-3.94776 0,-2.08496 -0.512695,-3.42651 -0.512696,-1.3501 -1.990967,-1.3501 -1.358643,0 -1.990967,1.28174 -0.623779,1.27319 -0.623779,3.75977 0,1.87133 0.401611,3.00781 0.615235,1.73462 2.102051,1.73462 z"
         style="font-style:normal;font-variant:normal;font-weight:normal;font-stretch:normal;font-size:17.5px;font-family:Helvetica;-inkscape-font-specification:Helvetica"
         id="path4192" />
      <path
         d="m 33.032063,626.4256 q 1.016845,0 1.589355,-0.56397 0.57251,-0.57251 0.57251,-1.35864 0,-0.68359 -0.546875,-1.2561 -0.546875,-0.57251 -1.66626,-0.57251 -1.11084,0 -1.606445,0.57251 -0.495606,0.57251 -0.495606,1.34155 0,0.86304 0.640869,1.3501 0.640869,0.48706 1.512452,0.48706 z m 0.09399,6.05835 q 1.068115,0 1.768798,-0.57251 0.709229,-0.58106 0.709229,-1.72608 0,-1.18774 -0.726318,-1.80297 -0.726319,-0.61524 -1.862793,-0.61524 -1.102295,0 -1.802979,0.63233 -0.692139,0.62377 -0.692139,1.73461 0,0.95704 0.632325,1.65772 0.640869,0.69214 1.973877,0.69214 z m -2.1875,-5.46875 q -0.640869,-0.27344 -0.999756,-0.64087 -0.675049,-0.6836 -0.675049,-1.77735 0,-1.36718 0.991211,-2.34985 0.991211,-0.98266 2.811279,-0.98266 1.760254,0 2.76001,0.93139 0.999756,0.92285 0.999756,2.16187 0,1.14502 -0.581055,1.85425 -0.324707,0.40161 -1.008301,0.78613 0.760498,0.35034 1.196289,0.80322 0.811768,0.85449 0.811768,2.22168 0,1.61499 -1.085205,2.74292 -1.085205,1.11938 -3.067627,1.11938 -1.785889,0 -3.024902,-0.96557 -1.230469,-0.97412 -1.230469,-2.81983 0,-1.0852 0.529785,-1.87133 0.529785,-0.79468 1.572266,-1.21338 z"
         style="font-style:normal;font-variant:normal;font-weight:normal;font-stretch:normal;font-size:17.5px;font-family:Helvetica;-inkscape-font-specification:Helvetica"
         id="path4194" />
      <path
         d="m 44.063557,626.28888 q 1.07666,0 1.674804,-0.29907 0.939942,-0.46997 0.939942,-1.6919 0,-1.23047 -0.999756,-1.65771 -0.563965,-0.23926 -1.674805,-0.23926 l -3.033447,0 0,3.88794 3.093262,0 z m 0.572509,5.79346 q 1.563721,0 2.230225,-0.90577 0.418701,-0.57251 0.418701,-1.38427 0,-1.36719 -1.221924,-1.8628 -0.649414,-0.26489 -1.717529,-0.26489 l -3.375244,0 0,4.41773 3.665771,0 z m -5.332031,-11.09986 5.391846,0 q 2.20459,0 3.135986,1.31592 0.546875,0.77759 0.546875,1.79443 0,1.18775 -0.675049,1.94825 -0.350341,0.40161 -1.0083,0.73486 0.965576,0.36743 1.444091,0.82886 0.845948,0.82031 0.845948,2.2644 0,1.21338 -0.760498,2.19605 -1.136475,1.46972 -3.614502,1.46972 l -5.306397,0 0,-12.55249 z"
         style="font-style:normal;font-variant:normal;font-weight:normal;font-stretch:normal;font-size:17.5px;font-family:Helvetica;-inkscape-font-specification:Helvetica"
         id="path4196" />
      <path
         d="m 55.855549,632.08234 q 0.863037,0 1.418457,-0.17945 0.991211,-0.33325 1.623535,-1.28174 0.50415,-0.76049 0.726318,-1.94824 0.128174,-0.70923 0.128174,-1.31592 0,-2.33276 -0.931396,-3.62304 -0.922852,-1.29029 -2.982178,-1.29029 l -3.016357,0 0,9.63868 3.033447,0 z m -4.742432,-11.09986 5.084229,0 q 2.589111,0 4.016113,1.83716 1.273193,1.65772 1.273193,4.24683 0,1.99951 -0.751953,3.6145 -1.324463,2.854 -4.554443,2.854 l -5.067139,0 0,-12.55249 z"
         style="font-style:normal;font-variant:normal;font-weight:normal;font-stretch:normal;font-size:17.5px;font-family:Helvetica;-inkscape-font-specification:Helvetica"
         id="path4198" />
    </g>
    <g
       style="font-style:normal;font-variant:normal;font-weight:normal;font-stretch:normal;font-size:40px;line-height:125%;font-family:Verdana;-inkscape-font-specification:Verdana;letter-spacing:0px;word-spacing:0px;fill:#000000;fill-opacity:1;stroke:none;stroke-width:1px;stroke-linecap:butt;stroke-linejoin:miter;stroke-opacity:1"
       id="text4154">
      <path
         d="m 12.501957,978.5871 -4.5458985,0 0,11.21948 -1.6918945,0 0,-11.21948 -4.5458985,0 0,-1.50391 10.7836915,0 0,1.50391 z"
         style="font-size:17.5px"
         id="path4187" />
    </g>
    <g
       style="font-style:normal;font-variant:normal;font-weight:normal;font-stretch:normal;font-size:40px;line-height:125%;font-family:Verdana;-inkscape-font-specification:Verdana;letter-spacing:0px;word-spacing:0px;fill:#000000;fill-opacity:1;stroke:none;stroke-width:1px;stroke-linecap:butt;stroke-linejoin:miter;stroke-opacity:1"
       id="text4158">
      <path
         d="m 12.869389,947.28687 -1.802979,0 -1.2475585,-3.54615 -5.5029297,0 -1.2475586,3.54615 -1.7175293,0 4.6313476,-12.72339 2.2558594,0 4.6313481,12.72339 z m -3.5717778,-4.99878 -2.2302246,-6.24634 -2.2387695,6.24634 4.4689941,0 z"
         style="font-size:17.5px"
         id="path4184" />
    </g>
    <g
       style="font-style:normal;font-variant:normal;font-weight:normal;font-stretch:normal;font-size:40px;line-height:125%;font-family:Verdana;-inkscape-font-specification:Verdana;letter-spacing:0px;word-spacing:0px;fill:#000000;fill-opacity:1;stroke:none;stroke-width:1px;stroke-linecap:butt;stroke-linejoin:miter;stroke-opacity:1"
       id="text4162">
      <path
         d="m 11.412479,893.505 q 0.777588,0.8545 1.187745,2.09351 0.418701,1.23901 0.418701,2.81128 0,1.57227 -0.427246,2.81982 -0.418702,1.23902 -1.1792,2.06788 -0.786132,0.86303 -1.8627926,1.29882 -1.0681152,0.43579 -2.4438476,0.43579 -1.3415528,0 -2.4438477,-0.44433 -1.09375,-0.44434 -1.8627929,-1.29028 -0.769043,-0.84595 -1.1877442,-2.07642 -0.4101562,-1.23047 -0.4101562,-2.81128 0,-1.55518 0.4101562,-2.78564 0.4101563,-1.23902 1.1962891,-2.11915 0.7519531,-0.8374 1.8627929,-1.28173 1.1193848,-0.44434 2.4353028,-0.44434 1.3671875,0 2.4523926,0.45288 1.0937496,0.44434 1.8542476,1.27319 z m -0.153808,4.90479 q 0,-2.47803 -1.11084,-3.81958 -1.1108399,-1.3501 -3.0334473,-1.3501 -1.9396973,0 -3.0505371,1.3501 -1.1022949,1.34155 -1.1022949,3.81958 0,2.50366 1.1279297,3.83667 1.1279296,1.32446 3.0249023,1.32446 1.8969727,0 3.0163573,-1.32446 1.12793,-1.33301 1.12793,-3.83667 z"
         style="font-size:17.5px"
         id="path4181" />
    </g>
    <g
       style="font-style:normal;font-variant:normal;font-weight:normal;font-stretch:normal;font-size:40px;line-height:125%;font-family:Verdana;-inkscape-font-specification:Verdana;letter-spacing:0px;word-spacing:0px;fill:#000000;fill-opacity:1;stroke:none;stroke-width:1px;stroke-linecap:butt;stroke-linejoin:miter;stroke-opacity:1"
       id="text4166">
      <path
         d="m 11.134769,845.24237 -8.049316,0 0,-12.72339 1.6918946,0 0,11.21948 6.3574214,0 0,1.50391 z"
         style="font-size:17.5px"
         id="path4178" />
    </g>
    <g
       style="font-style:normal;font-variant:normal;font-weight:normal;font-stretch:normal;font-size:40px;line-height:125%;font-family:Verdana;-inkscape-font-specification:Verdana;letter-spacing:0px;word-spacing:0px;fill:#000000;fill-opacity:1;stroke:none;stroke-width:1px;stroke-linecap:butt;stroke-linejoin:miter;stroke-opacity:1"
       id="text4170">
      <path
         d="m 12.484867,782.20056 q 0,1.73462 -0.760498,3.14453 -0.751953,1.40991 -2.0080566,2.1875 -0.871582,0.53833 -1.9482422,0.77759 -1.0681152,0.23926 -2.8198242,0.23926 l -3.2128906,0 0,-12.72339 3.1787109,0 q 1.862793,0 2.956543,0.27344 1.1022949,0.26489 1.862793,0.73486 1.2988277,0.81177 2.0251467,2.16187 0.726318,1.35009 0.726318,3.20434 z m -1.768799,-0.0256 q 0,-1.49536 -0.52124,-2.52076 -0.5212402,-1.02539 -1.5551757,-1.61499 -0.7519532,-0.42724 -1.5979004,-0.5896 -0.8459473,-0.17089 -2.0251465,-0.17089 l -1.5893555,0 0,9.81811 1.5893555,0 q 1.2219238,0 2.1276855,-0.17944 0.9143067,-0.17944 1.6748047,-0.66651 0.9484863,-0.60668 1.4184574,-1.5979 0.478515,-0.99121 0.478515,-2.47802 z"
         style="font-size:17.5px"
         id="path4175" />
    </g>
    <g
       style="font-style:normal;font-variant:normal;font-weight:normal;font-stretch:normal;font-size:40px;line-height:125%;font-family:Verdana;-inkscape-font-specification:Verdana;letter-spacing:0px;word-spacing:0px;fill:#000000;fill-opacity:1;stroke:none;stroke-width:1px;stroke-linecap:butt;stroke-linejoin:miter;stroke-opacity:1"
       id="text4174">
      <path
         d="m 12.501957,720.63702 -4.5458985,0 0,11.21949 -1.6918945,0 0,-11.21949 -4.5458985,0 0,-1.5039 10.7836915,0 0,1.5039 z"
         style="font-size:17.5px"
         id="path4172" />
    </g>
    <g
       style="font-style:normal;font-variant:normal;font-weight:normal;font-stretch:normal;font-size:40px;line-height:125%;font-family:Verdana;-inkscape-font-specification:Verdana;letter-spacing:0px;word-spacing:0px;fill:#000000;fill-opacity:1;stroke:none;stroke-width:1px;stroke-linecap:butt;stroke-linejoin:miter;stroke-opacity:1"
       id="text4178">
      <path
         d="m 11.173222,663.94415 -6.4343266,0 0,3.58887 5.5285646,0 0,1.50391 -5.5285646,0 0,6.12671 -1.6918945,0 0,-12.72339 8.1262211,0 0,1.5039 z"
         style="font-size:17.5px"
         id="path4169" />
    </g>
  </g>
</svg>
